<svg width="168" height="43" viewBox="0 0 168 43" fill="none" xmlns="http://www.w3.org/2000/svg">
<path fill-rule="evenodd" clip-rule="evenodd" d="M19.8232 33.7141C20.5926 34.3312 21.2702 34.8657 21.7999 35.2799C22.5093 35.8347 23.4907 35.8347 24.2001 35.2799C27.1863 32.9444 34.8765 26.7874 37.1947 23.5511C41.0045 18.2325 40.8651 12.8334 37.1947 8.79591C33.5243 4.75838 27.5734 4.75838 23.903 8.79591L23 9.78927L22.097 8.79591C18.4266 4.75838 12.4757 4.75838 8.80532 8.79591C5.5057 12.4256 5.0597 17.1556 7.77123 21.9383L5.58579 24.156C4.80474 24.9485 4.80474 26.2335 5.58579 27.0261C6.36684 27.8186 7.63316 27.8186 8.41421 27.0261L10.2037 25.2102C11.8912 27.0104 14.3676 29.1998 16.6933 31.1499L13.5858 34.3033C12.8047 35.0958 12.8047 36.3808 13.5858 37.1733C14.3668 37.9659 15.6332 37.9659 16.4142 37.1733L19.8232 33.7141ZM21.3333 13.9438L21.3499 13.3917C21.361 12.8741 21.5047 12.4888 21.7811 12.2357C22.0575 11.9827 22.4334 11.8561 22.9088 11.8561C23.4174 11.8561 23.8043 11.9482 24.0697 12.1322C24.335 12.3162 24.4677 12.6843 24.4677 13.2364V13.9438C25.4185 14.1394 26.1979 14.4787 26.806 14.9618C27.414 15.4449 27.7181 15.9337 27.7181 16.4283C27.7181 16.6009 27.6794 16.7504 27.602 16.8769C27.5357 16.992 27.4472 17.0782 27.3366 17.1357C27.2371 17.1817 27.1266 17.2048 27.005 17.2048C26.806 17.2048 26.5075 17.1012 26.1095 16.8942C25.7114 16.6756 25.2692 16.4628 24.7828 16.2558C24.2963 16.0373 23.8485 15.928 23.4395 15.928C22.7872 15.928 22.461 16.204 22.461 16.7562C22.461 16.9287 22.5108 17.0955 22.6103 17.2565C22.7208 17.406 22.8922 17.5671 23.1244 17.7396C23.3566 17.9006 23.5832 18.0444 23.8043 18.171C24.0254 18.2975 24.3295 18.47 24.7164 18.6886C25.1034 18.8956 25.4295 19.0796 25.6949 19.2407C26.5462 19.7468 27.1432 20.2299 27.4859 20.69C27.8286 21.1501 28 21.6792 28 22.2773C28 24.3247 26.8447 25.4922 24.534 25.7798V26.3492C24.534 27.0163 24.4069 27.4707 24.1526 27.7122C23.8983 27.9653 23.4947 28.0918 22.942 28.0918C22.4113 28.0918 22.0188 27.971 21.7645 27.7295C21.5213 27.4879 21.3997 27.0738 21.3997 26.4872V25.6073C20.7363 25.4347 20.1393 25.1932 19.6086 24.8826C19.0779 24.572 18.6744 24.25 18.398 23.9164C18.1327 23.5713 18 23.2493 18 22.9502C18 22.6972 18.0774 22.4844 18.2322 22.3118C18.398 22.1278 18.6357 22.0358 18.9453 22.0358C19.1774 22.0358 19.7358 22.191 20.6202 22.5016C21.5047 22.8007 22.2178 22.9502 22.7595 22.9502C23.257 22.9502 23.5058 22.7719 23.5058 22.4153C23.5058 22.3118 23.4837 22.2198 23.4395 22.1393C23.4063 22.0473 23.34 21.961 23.2405 21.8805C23.152 21.7885 23.047 21.7079 22.9254 21.6389C22.8148 21.5584 22.6545 21.4606 22.4444 21.3456C22.2454 21.2306 22.0409 21.1156 21.8308 21.0005C21.6318 20.8855 21.3665 20.736 21.0348 20.552C20.7032 20.3679 20.3825 20.1839 20.073 19.9998C19.476 19.6433 19.0116 19.1889 18.6799 18.6368C18.3483 18.0732 18.1824 17.5498 18.1824 17.0667C18.1824 16.2961 18.4533 15.6347 18.995 15.0826C19.5368 14.5189 20.3162 14.1394 21.3333 13.9438ZM6.58579 32.2738C5.80474 33.0664 5.80474 34.3513 6.58579 35.1439C7.36684 35.9364 8.63316 35.9364 9.41421 35.1439L12.9497 31.5563C13.7308 30.7637 13.7308 29.4788 12.9497 28.6862C12.1687 27.8936 10.9024 27.8936 10.1213 28.6862L6.58579 32.2738Z" fill="#FF154F"/>
<path d="M57.774 27.7318C58.2247 27.7318 58.6147 27.6884 58.944 27.6018C59.2907 27.4978 59.6113 27.3244 59.906 27.0818C60.218 26.8218 60.4693 26.4838 60.66 26.0678C60.8507 25.6518 60.998 25.1231 61.102 24.4818C61.2233 23.8231 61.284 23.0518 61.284 22.1678C61.284 21.1798 61.1973 20.3478 61.024 19.6718C60.8507 18.9784 60.5993 18.4584 60.27 18.1118C59.9407 17.7478 59.5767 17.4964 59.178 17.3578C58.7967 17.2018 58.3287 17.1151 57.774 17.0978V27.7318ZM58.554 13.4838C61.258 13.4838 63.4247 14.2638 65.054 15.8238C66.7007 17.3838 67.524 19.5331 67.524 22.2718C67.524 23.1558 67.4373 24.0138 67.264 24.8458C67.108 25.6778 66.8393 26.4924 66.458 27.2898C66.0767 28.0698 65.6 28.7544 65.028 29.3438C64.456 29.9158 63.728 30.3838 62.844 30.7478C61.96 31.0944 60.9633 31.2678 59.854 31.2678H54.732C53.6747 31.2678 52.912 30.9991 52.444 30.4618C51.9933 29.9244 51.768 28.9538 51.768 27.5498V16.5778C51.768 14.5151 52.756 13.4838 54.732 13.4838H58.554ZM78.2508 27.6278C78.8402 27.6278 79.3428 27.3678 79.7588 26.8478C80.1922 26.3278 80.4955 25.6864 80.6688 24.9238C80.8595 24.1611 80.9548 23.3464 80.9548 22.4798C80.9548 21.5958 80.8595 20.7638 80.6688 19.9838C80.4782 19.1864 80.1662 18.5104 79.7328 17.9558C79.3168 17.4011 78.8228 17.1238 78.2508 17.1238C77.6962 17.1238 77.2108 17.4011 76.7948 17.9558C76.3788 18.5104 76.0668 19.1864 75.8588 19.9838C75.6508 20.7811 75.5468 21.6131 75.5468 22.4798C75.5468 23.3464 75.6422 24.1611 75.8328 24.9238C76.0408 25.6864 76.3528 26.3278 76.7688 26.8478C77.2022 27.3678 77.6962 27.6278 78.2508 27.6278ZM82.8528 30.4098C81.4835 31.0858 79.9408 31.4238 78.2248 31.4238C76.5262 31.4238 74.9922 31.0858 73.6228 30.4098C72.2708 29.7164 71.1875 28.6851 70.3728 27.3158C69.5582 25.9464 69.1508 24.3344 69.1508 22.4798C69.1508 19.6718 69.9915 17.4444 71.6728 15.7978C73.3715 14.1338 75.5642 13.3018 78.2508 13.3018C80.9375 13.3018 83.1302 14.1338 84.8288 15.7978C86.5275 17.4444 87.3768 19.6718 87.3768 22.4798C87.3768 24.3344 86.9608 25.9464 86.1288 27.3158C85.3142 28.6851 84.2222 29.7164 82.8528 30.4098ZM107.077 28.7978C107.077 29.5604 106.851 30.1671 106.401 30.6178C105.95 31.0511 105.291 31.2678 104.425 31.2678C104.199 31.2678 103.974 31.2418 103.749 31.1898C103.523 31.1378 103.281 31.0424 103.021 30.9038C102.778 30.7651 102.561 30.6351 102.371 30.5138C102.18 30.3924 101.937 30.2104 101.643 29.9678C101.365 29.7078 101.14 29.5084 100.967 29.3698C100.811 29.2138 100.559 28.9711 100.213 28.6418C99.866 28.3124 99.6147 28.0698 99.4587 27.9138L94.7007 23.4158V29.0578C94.7007 29.9071 94.536 30.4878 94.2067 30.7998C93.8947 31.1118 93.392 31.2678 92.6987 31.2678C91.936 31.2678 91.3727 31.0944 91.0087 30.7478C90.6447 30.4011 90.4627 29.8204 90.4627 29.0058V16.4478C90.4627 15.4598 90.714 14.7144 91.2167 14.2118C91.7194 13.7091 92.4387 13.4578 93.3747 13.4578C94.016 13.4578 94.5274 13.5618 94.9087 13.7698C95.3074 13.9604 95.7754 14.3158 96.3127 14.8358L102.891 21.3878V15.7198C102.891 14.9744 103.073 14.4198 103.437 14.0558C103.818 13.6744 104.329 13.4838 104.971 13.4838C105.716 13.4838 106.253 13.6571 106.583 14.0038C106.912 14.3504 107.077 14.9138 107.077 15.6938V28.7978ZM118.138 17.6958C117.393 17.6958 116.838 17.9124 116.474 18.3458C116.127 18.7791 115.954 19.5504 115.954 20.6598V23.7278H120.27V20.6078C120.27 19.8798 120.183 19.2991 120.01 18.8658C119.837 18.4151 119.594 18.1118 119.282 17.9558C118.987 17.7824 118.606 17.6958 118.138 17.6958ZM120.27 27.3158H115.954V28.6938C115.954 29.5778 115.72 30.2278 115.252 30.6438C114.784 31.0598 113.978 31.2678 112.834 31.2678C112.349 31.2678 111.95 31.1984 111.638 31.0598C111.326 30.9211 111.049 30.6871 110.806 30.3578C110.581 30.0284 110.407 29.5518 110.286 28.9278C110.182 28.2864 110.095 27.5238 110.026 26.6398C109.974 25.7384 109.948 24.6031 109.948 23.2338C109.948 22.0378 110.069 20.9458 110.312 19.9578C110.572 18.9524 110.91 18.1031 111.326 17.4098C111.759 16.7164 112.245 16.1098 112.782 15.5898C113.319 15.0524 113.9 14.6364 114.524 14.3418C115.165 14.0471 115.781 13.8304 116.37 13.6918C116.977 13.5358 117.583 13.4578 118.19 13.4578C118.918 13.4578 119.637 13.5618 120.348 13.7698C121.059 13.9604 121.778 14.2984 122.506 14.7838C123.234 15.2691 123.867 15.8758 124.404 16.6038C124.959 17.3144 125.409 18.2418 125.756 19.3858C126.103 20.5298 126.276 21.8124 126.276 23.2338C126.276 25.5218 126.189 27.2204 126.016 28.3298C125.86 29.4218 125.583 30.1844 125.184 30.6178C124.803 31.0511 124.205 31.2678 123.39 31.2678C122.246 31.2678 121.44 31.0598 120.972 30.6438C120.504 30.2278 120.27 29.5778 120.27 28.6938V27.3158ZM138.304 27.3678C138.304 28.3558 138.182 29.1444 137.94 29.7338C137.697 30.3058 137.359 30.7044 136.926 30.9298C136.51 31.1551 135.955 31.2678 135.262 31.2678C134.239 31.2678 133.494 30.9991 133.026 30.4618C132.575 29.9071 132.341 28.9364 132.324 27.5498L132.272 17.9558H130.062C128.97 17.9558 128.146 17.7824 127.592 17.4358C127.054 17.0891 126.786 16.4738 126.786 15.5898C126.786 15.0524 126.89 14.6278 127.098 14.3158C127.323 14.0038 127.652 13.7871 128.086 13.6658C128.519 13.5271 129.1 13.4578 129.828 13.4578H140.956C141.926 13.4578 142.628 13.6311 143.062 13.9778C143.495 14.3244 143.712 14.9224 143.712 15.7718C143.712 16.3438 143.582 16.7944 143.322 17.1238C143.079 17.4358 142.75 17.6524 142.334 17.7738C141.918 17.8951 141.38 17.9558 140.722 17.9558H138.304V27.3678ZM156.928 20.7118C157.846 20.7118 158.488 20.8591 158.852 21.1538C159.233 21.4484 159.424 21.9511 159.424 22.6618C159.424 23.2511 159.198 23.6758 158.748 23.9358C158.314 24.1784 157.63 24.2998 156.694 24.2998H152.482V27.0558L158.124 27.0818C159.094 27.0818 159.788 27.2291 160.204 27.5238C160.637 27.8011 160.854 28.3038 160.854 29.0318C160.854 29.8638 160.602 30.4444 160.1 30.7738C159.614 31.1031 158.869 31.2678 157.864 31.2678H149.44C148.417 31.2678 147.663 30.9991 147.178 30.4618C146.71 29.9071 146.476 28.9364 146.476 27.5498V16.5778C146.476 14.4978 147.464 13.4578 149.44 13.4578H157.864C158.869 13.4578 159.614 13.6138 160.1 13.9258C160.602 14.2378 160.854 14.8011 160.854 15.6158C160.854 16.3784 160.637 16.9158 160.204 17.2278C159.788 17.5224 159.094 17.6698 158.124 17.6698H152.456V20.7118H156.928Z" fill="#FF154F"/>
</svg>
