<svg width="168" height="42" viewBox="0 0 168 42" fill="none" xmlns="http://www.w3.org/2000/svg">
<path fill-rule="evenodd" clip-rule="evenodd" d="M19.8232 32.9464C20.5926 33.5634 21.2702 34.0979 21.7999 34.5121C22.5093 35.067 23.4907 35.067 24.2001 34.5121C27.1863 32.1767 34.8765 26.0196 37.1947 22.7834C41.0045 17.4647 40.8651 12.0657 37.1947 8.02815C33.5243 3.99062 27.5734 3.99062 23.903 8.02815L23 9.02151L22.097 8.02815C18.4266 3.99062 12.4757 3.99062 8.80532 8.02815C5.5057 11.6578 5.0597 16.3878 7.77123 21.1706L5.58579 23.3882C4.80474 24.1808 4.80474 25.4657 5.58579 26.2583C6.36684 27.0509 7.63316 27.0509 8.41421 26.2583L10.2037 24.4425C11.8912 26.2426 14.3676 28.4321 16.6933 30.3822L13.5858 33.5355C12.8047 34.3281 12.8047 35.613 13.5858 36.4056C14.3668 37.1981 15.6332 37.1981 16.4142 36.4056L19.8232 32.9464ZM21.3333 13.1761L21.3499 12.6239C21.361 12.1063 21.5047 11.721 21.7811 11.4679C22.0575 11.2149 22.4334 11.0884 22.9088 11.0884C23.4174 11.0884 23.8043 11.1804 24.0697 11.3644C24.335 11.5485 24.4677 11.9165 24.4677 12.4687V13.1761C25.4185 13.3716 26.1979 13.7109 26.806 14.194C27.414 14.6771 27.7181 15.166 27.7181 15.6606C27.7181 15.8331 27.6794 15.9826 27.602 16.1092C27.5357 16.2242 27.4472 16.3105 27.3366 16.368C27.2371 16.414 27.1266 16.437 27.005 16.437C26.806 16.437 26.5075 16.3335 26.1095 16.1264C25.7114 15.9079 25.2692 15.6951 24.7828 15.488C24.2963 15.2695 23.8485 15.1602 23.4395 15.1602C22.7872 15.1602 22.461 15.4363 22.461 15.9884C22.461 16.1609 22.5108 16.3277 22.6103 16.4888C22.7208 16.6383 22.8922 16.7993 23.1244 16.9719C23.3566 17.1329 23.5832 17.2767 23.8043 17.4032C24.0254 17.5297 24.3295 17.7023 24.7164 17.9208C25.1034 18.1278 25.4295 18.3119 25.6949 18.4729C26.5462 18.979 27.1432 19.4621 27.4859 19.9222C27.8286 20.3823 28 20.9114 28 21.5096C28 23.557 26.8447 24.7245 24.534 25.012V25.5814C24.534 26.2485 24.4069 26.7029 24.1526 26.9444C23.8983 27.1975 23.4947 27.324 22.942 27.324C22.4113 27.324 22.0188 27.2032 21.7645 26.9617C21.5213 26.7201 21.3997 26.3061 21.3997 25.7194V24.8395C20.7363 24.667 20.1393 24.4254 19.6086 24.1149C19.0779 23.8043 18.6744 23.4822 18.398 23.1486C18.1327 22.8036 18 22.4815 18 22.1824C18 21.9294 18.0774 21.7166 18.2322 21.5441C18.398 21.36 18.6357 21.268 18.9453 21.268C19.1774 21.268 19.7358 21.4233 20.6202 21.7339C21.5047 22.0329 22.2178 22.1824 22.7595 22.1824C23.257 22.1824 23.5058 22.0042 23.5058 21.6476C23.5058 21.5441 23.4837 21.452 23.4395 21.3715C23.4063 21.2795 23.34 21.1932 23.2405 21.1127C23.152 21.0207 23.047 20.9402 22.9254 20.8712C22.8148 20.7907 22.6545 20.6929 22.4444 20.5779C22.2454 20.4628 22.0409 20.3478 21.8308 20.2328C21.6318 20.1178 21.3665 19.9682 21.0348 19.7842C20.7032 19.6002 20.3825 19.4161 20.073 19.2321C19.476 18.8755 19.0116 18.4212 18.6799 17.869C18.3483 17.3054 18.1824 16.7821 18.1824 16.299C18.1824 15.5283 18.4533 14.8669 18.995 14.3148C19.5368 13.7512 20.3162 13.3716 21.3333 13.1761ZM6.58579 31.506C5.80474 32.2986 5.80474 33.5836 6.58579 34.3761C7.36684 35.1687 8.63316 35.1687 9.41421 34.3761L12.9497 30.7885C13.7308 29.996 13.7308 28.711 12.9497 27.9184C12.1687 27.1259 10.9024 27.1259 10.1213 27.9184L6.58579 31.506Z" fill="white"/>
<path d="M57.774 26.964C58.2247 26.964 58.6147 26.9207 58.944 26.834C59.2907 26.73 59.6113 26.5567 59.906 26.314C60.218 26.054 60.4693 25.716 60.66 25.3C60.8507 24.884 60.998 24.3553 61.102 23.714C61.2233 23.0553 61.284 22.284 61.284 21.4C61.284 20.412 61.1973 19.58 61.024 18.904C60.8507 18.2107 60.5993 17.6907 60.27 17.344C59.9407 16.98 59.5767 16.7287 59.178 16.59C58.7967 16.434 58.3287 16.3473 57.774 16.33V26.964ZM58.554 12.716C61.258 12.716 63.4247 13.496 65.054 15.056C66.7007 16.616 67.524 18.7653 67.524 21.504C67.524 22.388 67.4373 23.246 67.264 24.078C67.108 24.91 66.8393 25.7247 66.458 26.522C66.0767 27.302 65.6 27.9867 65.028 28.576C64.456 29.148 63.728 29.616 62.844 29.98C61.96 30.3267 60.9633 30.5 59.854 30.5H54.732C53.6747 30.5 52.912 30.2313 52.444 29.694C51.9933 29.1567 51.768 28.186 51.768 26.782V15.81C51.768 13.7473 52.756 12.716 54.732 12.716H58.554ZM78.2508 26.86C78.8402 26.86 79.3428 26.6 79.7588 26.08C80.1922 25.56 80.4955 24.9187 80.6688 24.156C80.8595 23.3933 80.9548 22.5787 80.9548 21.712C80.9548 20.828 80.8595 19.996 80.6688 19.216C80.4782 18.4187 80.1662 17.7427 79.7328 17.188C79.3168 16.6333 78.8228 16.356 78.2508 16.356C77.6962 16.356 77.2108 16.6333 76.7948 17.188C76.3788 17.7427 76.0668 18.4187 75.8588 19.216C75.6508 20.0133 75.5468 20.8453 75.5468 21.712C75.5468 22.5787 75.6422 23.3933 75.8328 24.156C76.0408 24.9187 76.3528 25.56 76.7688 26.08C77.2022 26.6 77.6962 26.86 78.2508 26.86ZM82.8528 29.642C81.4835 30.318 79.9408 30.656 78.2248 30.656C76.5262 30.656 74.9922 30.318 73.6228 29.642C72.2708 28.9487 71.1875 27.9173 70.3728 26.548C69.5582 25.1787 69.1508 23.5667 69.1508 21.712C69.1508 18.904 69.9915 16.6767 71.6728 15.03C73.3715 13.366 75.5642 12.534 78.2508 12.534C80.9375 12.534 83.1302 13.366 84.8288 15.03C86.5275 16.6767 87.3768 18.904 87.3768 21.712C87.3768 23.5667 86.9608 25.1787 86.1288 26.548C85.3142 27.9173 84.2222 28.9487 82.8528 29.642ZM107.077 28.03C107.077 28.7927 106.851 29.3993 106.401 29.85C105.95 30.2833 105.291 30.5 104.425 30.5C104.199 30.5 103.974 30.474 103.749 30.422C103.523 30.37 103.281 30.2747 103.021 30.136C102.778 29.9973 102.561 29.8673 102.371 29.746C102.18 29.6247 101.937 29.4427 101.643 29.2C101.365 28.94 101.14 28.7407 100.967 28.602C100.811 28.446 100.559 28.2033 100.213 27.874C99.866 27.5447 99.6147 27.302 99.4587 27.146L94.7007 22.648V28.29C94.7007 29.1393 94.536 29.72 94.2067 30.032C93.8947 30.344 93.392 30.5 92.6987 30.5C91.936 30.5 91.3727 30.3267 91.0087 29.98C90.6447 29.6333 90.4627 29.0527 90.4627 28.238V15.68C90.4627 14.692 90.714 13.9467 91.2167 13.444C91.7194 12.9413 92.4387 12.69 93.3747 12.69C94.016 12.69 94.5274 12.794 94.9087 13.002C95.3074 13.1927 95.7754 13.548 96.3127 14.068L102.891 20.62V14.952C102.891 14.2067 103.073 13.652 103.437 13.288C103.818 12.9067 104.329 12.716 104.971 12.716C105.716 12.716 106.253 12.8893 106.583 13.236C106.912 13.5827 107.077 14.146 107.077 14.926V28.03ZM118.138 16.928C117.393 16.928 116.838 17.1447 116.474 17.578C116.127 18.0113 115.954 18.7827 115.954 19.892V22.96H120.27V19.84C120.27 19.112 120.183 18.5313 120.01 18.098C119.837 17.6473 119.594 17.344 119.282 17.188C118.987 17.0147 118.606 16.928 118.138 16.928ZM120.27 26.548H115.954V27.926C115.954 28.81 115.72 29.46 115.252 29.876C114.784 30.292 113.978 30.5 112.834 30.5C112.349 30.5 111.95 30.4307 111.638 30.292C111.326 30.1533 111.049 29.9193 110.806 29.59C110.581 29.2607 110.407 28.784 110.286 28.16C110.182 27.5187 110.095 26.756 110.026 25.872C109.974 24.9707 109.948 23.8353 109.948 22.466C109.948 21.27 110.069 20.178 110.312 19.19C110.572 18.1847 110.91 17.3353 111.326 16.642C111.759 15.9487 112.245 15.342 112.782 14.822C113.319 14.2847 113.9 13.8687 114.524 13.574C115.165 13.2793 115.781 13.0627 116.37 12.924C116.977 12.768 117.583 12.69 118.19 12.69C118.918 12.69 119.637 12.794 120.348 13.002C121.059 13.1927 121.778 13.5307 122.506 14.016C123.234 14.5013 123.867 15.108 124.404 15.836C124.959 16.5467 125.409 17.474 125.756 18.618C126.103 19.762 126.276 21.0447 126.276 22.466C126.276 24.754 126.189 26.4527 126.016 27.562C125.86 28.654 125.583 29.4167 125.184 29.85C124.803 30.2833 124.205 30.5 123.39 30.5C122.246 30.5 121.44 30.292 120.972 29.876C120.504 29.46 120.27 28.81 120.27 27.926V26.548ZM138.304 26.6C138.304 27.588 138.182 28.3767 137.94 28.966C137.697 29.538 137.359 29.9367 136.926 30.162C136.51 30.3873 135.955 30.5 135.262 30.5C134.239 30.5 133.494 30.2313 133.026 29.694C132.575 29.1393 132.341 28.1687 132.324 26.782L132.272 17.188H130.062C128.97 17.188 128.146 17.0147 127.592 16.668C127.054 16.3213 126.786 15.706 126.786 14.822C126.786 14.2847 126.89 13.86 127.098 13.548C127.323 13.236 127.652 13.0193 128.086 12.898C128.519 12.7593 129.1 12.69 129.828 12.69H140.956C141.926 12.69 142.628 12.8633 143.062 13.21C143.495 13.5567 143.712 14.1547 143.712 15.004C143.712 15.576 143.582 16.0267 143.322 16.356C143.079 16.668 142.75 16.8847 142.334 17.006C141.918 17.1273 141.38 17.188 140.722 17.188H138.304V26.6ZM156.928 19.944C157.846 19.944 158.488 20.0913 158.852 20.386C159.233 20.6807 159.424 21.1833 159.424 21.894C159.424 22.4833 159.198 22.908 158.748 23.168C158.314 23.4107 157.63 23.532 156.694 23.532H152.482V26.288L158.124 26.314C159.094 26.314 159.788 26.4613 160.204 26.756C160.637 27.0333 160.854 27.536 160.854 28.264C160.854 29.096 160.602 29.6767 160.1 30.006C159.614 30.3353 158.869 30.5 157.864 30.5H149.44C148.417 30.5 147.663 30.2313 147.178 29.694C146.71 29.1393 146.476 28.1687 146.476 26.782V15.81C146.476 13.73 147.464 12.69 149.44 12.69H157.864C158.869 12.69 159.614 12.846 160.1 13.158C160.602 13.47 160.854 14.0333 160.854 14.848C160.854 15.6107 160.637 16.148 160.204 16.46C159.788 16.7547 159.094 16.902 158.124 16.902H152.456V19.944H156.928Z" fill="white"/>
</svg>
